<?xml version="1.0" encoding="utf-8"?>
<!-- Generator: Adobe Illustrator 15.0.0, SVG Export Plug-In . SVG Version: 6.00 Build 0)  -->
<!DOCTYPE svg PUBLIC "-//W3C//DTD SVG 1.1//EN" "http://www.w3.org/Graphics/SVG/1.1/DTD/svg11.dtd">
<svg version="1.1" id="Layer_1" xmlns="http://www.w3.org/2000/svg" xmlns:xlink="http://www.w3.org/1999/xlink" x="0px" y="0px"
	 width="32px" height="32px" viewBox="0 0 32 32" enable-background="new 0 0 32 32" xml:space="preserve">
<linearGradient id="SVGID_1_" gradientUnits="userSpaceOnUse" x1="15.9995" y1="1.7378" x2="15.9995" y2="30.2622">
	<stop  offset="0" style="stop-color:#404040"/>
	<stop  offset="1" style="stop-color:#000000"/>
</linearGradient>
<circle fill="url(#SVGID_1_)" cx="16" cy="16" r="14.262"/>
<path fill="#FFFFFF" d="M16,1C7.716,1,1,7.716,1,16s6.716,15,15,15c8.283,0,15-6.716,15-15S24.283,1,16,1z M16,28.375
	c-6.834,0-12.375-5.54-12.375-12.375C3.625,9.166,9.166,3.625,16,3.625c6.835,0,12.376,5.541,12.376,12.375
	C28.376,22.835,22.835,28.375,16,28.375z"/>
<polygon fill="#FFFFFF" points="12.998,21.633 12.998,10.368 22.753,16 "/>
</svg>
